<?xml version="1.0" encoding="UTF-8"?>
<svg viewBox="0 0 65 14" xmlns="http://www.w3.org/2000/svg">
<path d="m6.4499 5.7991h-2.576v4.3216c0 0.268 0.00666 0.5361 0.01997 0.8041 0.01331 0.2546 0.05991 0.4891 0.13978 0.7035 0.09319 0.201 0.22631 0.3685 0.39938 0.5025 0.18637 0.1206 0.45262 0.1809 0.79875 0.1809 0.213 0 0.43265-0.0201 0.65897-0.0603 0.22631-0.0402 0.43265-0.1139 0.61903-0.2211v1.6483c-0.213 0.1206-0.49256 0.201-0.83869 0.2412-0.33281 0.0536-0.59241 0.0804-0.77878 0.0804-0.69225 0-1.2314-0.0938-1.6175-0.2814-0.37275-0.2011-0.65231-0.4557-0.83869-0.7639-0.17306-0.3082-0.27956-0.6499-0.3195-1.0251-0.02663-0.3886-0.03994-0.7772-0.03994-1.1658v-4.9649h-2.0768v-1.5678h2.0768v-2.6734h1.7972v2.6734h2.576v1.5678z"/>
<path d="m8.7686 4.2312h1.7972v1.4674h0.04c0.1198-0.25461 0.2795-0.48242 0.4792-0.68343 0.1997-0.2144 0.4194-0.39531 0.659-0.54271 0.2529-0.14741 0.5258-0.26131 0.8187-0.34172 0.2929-0.0938 0.5857-0.1407 0.8786-0.1407s0.5591 0.0402 0.7988 0.1206l-0.0799 1.9498c-0.1464-0.0402-0.2929-0.0737-0.4393-0.10051-0.1465-0.0268-0.2929-0.0402-0.4393-0.0402-0.8787 0-1.5509 0.24791-2.0169 0.74373-0.4659 0.49581-0.6989 1.2663-0.6989 2.3116v4.784h-1.7972v-9.5278z"/>
<path d="m16.199 5.3971c0.5058-0.46902 1.0916-0.81743 1.7572-1.0452 0.6656-0.24121 1.3313-0.36181 1.9969-0.36181 0.6922 0 1.2846 0.0871 1.7772 0.26131 0.5059 0.1742 0.9186 0.40871 1.2381 0.70352s0.5524 0.63652 0.6989 1.0251c0.1597 0.37522 0.2396 0.77053 0.2396 1.1859v4.8644c0 0.335 0.0067 0.6432 0.02 0.9246s0.0333 0.5494 0.0599 0.8041h-1.5975c-0.04-0.4825-0.0599-0.9649-0.0599-1.4473h-0.04c-0.3993 0.6164-0.8719 1.0519-1.4178 1.3066-0.5458 0.2546-1.1781 0.3819-1.897 0.3819-0.4393 0-0.8586-0.0603-1.258-0.1809s-0.7522-0.3016-1.0584-0.5428c-0.2928-0.2412-0.5258-0.536-0.6989-0.8844-0.173-0.3618-0.2596-0.7772-0.2596-1.2462 0-0.6164 0.1332-1.1324 0.3994-1.5478 0.2796-0.41541 0.6523-0.75042 1.1183-1.005 0.4792-0.26801 1.0317-0.45562 1.6574-0.56282 0.639-0.1206 1.3179-0.18091 2.0368-0.18091h1.3179v-0.40201c0-0.24121-0.0466-0.48241-0.1398-0.72362-0.0931-0.24121-0.2329-0.45562-0.4193-0.64322-0.1864-0.20101-0.4193-0.35511-0.6989-0.46232-0.2796-0.1206-0.6124-0.1809-0.9984-0.1809-0.3462 0-0.6524 0.0335-0.9186 0.1005-0.2529 0.067-0.4859 0.15411-0.6989 0.26131-0.213 0.0938-0.4061 0.20771-0.5791 0.34171-0.1731 0.134-0.3395 0.26131-0.4992 0.38191l-1.0783-1.1256zm5.072 3.7789c-0.426 0-0.8653 0.0268-1.3179 0.0804-0.4393 0.0402-0.8454 0.1273-1.2181 0.26131-0.3595 0.134-0.659 0.32161-0.8986 0.56278-0.2263 0.2412-0.3395 0.5495-0.3395 0.9247 0 0.5494 0.1797 0.9447 0.5392 1.1859 0.3727 0.2412 0.8719 0.3618 1.4976 0.3618 0.4926 0 0.9119-0.0804 1.2581-0.2412 0.3461-0.1742 0.6257-0.3953 0.8387-0.6633s0.3661-0.5628 0.4592-0.8844c0.0932-0.3351 0.1398-0.6634 0.1398-0.98497v-0.60302h-0.9585z"/>
<path d="m26.514 4.2312h1.6774v1.4874h0.0399c0.04-0.13401 0.1398-0.30151 0.2996-0.50252 0.173-0.20101 0.386-0.38861 0.639-0.56282 0.2662-0.1876 0.5724-0.34171 0.9185-0.46231 0.3595-0.13401 0.7522-0.20101 1.1782-0.20101 0.7055 0 1.298 0.14741 1.7772 0.44222 0.4793 0.2948 0.872 0.73702 1.1782 1.3266 0.3062-0.58962 0.7388-1.0318 1.2979-1.3266 0.5592-0.29481 1.1249-0.44222 1.6974-0.44222 0.7322 0 1.3312 0.1206 1.7972 0.36181 0.4659 0.24121 0.832 0.56282 1.0982 0.96483 0.2663 0.38862 0.446 0.83753 0.5392 1.3468 0.1065 0.49581 0.1598 1.0117 0.1598 1.5478v5.5478h-1.7972v-5.3066c0-0.36181-0.0267-0.71022-0.0799-1.0452-0.0399-0.33501-0.1331-0.62982-0.2796-0.88443-0.1464-0.25461-0.3528-0.45561-0.619-0.60302-0.2663-0.1608-0.619-0.2412-1.0583-0.2412-0.8654 0-1.4844 0.268-1.8571 0.80402-0.3728 0.53602-0.5592 1.2261-0.5592 2.0704v5.2061h-1.7972v-4.985c0-0.45561-0.0266-0.87102-0.0798-1.2462-0.04-0.37522-0.1332-0.69683-0.2796-0.96484-0.1331-0.28141-0.3328-0.49581-0.5991-0.64322-0.2529-0.1608-0.599-0.2412-1.0383-0.2412-0.3195 0-0.6324 0.067-0.9386 0.201-0.2928 0.12061-0.5524 0.30821-0.7787 0.56282-0.2264 0.25461-0.4061 0.58292-0.5392 0.98493-0.1331 0.38861-0.1997 0.85093-0.1997 1.387v4.9448h-1.7972v-9.5278z"/>
<path d="m43.559 5.3971c0.5059-0.46902 1.0916-0.81743 1.7573-1.0452 0.6656-0.24121 1.3312-0.36181 1.9968-0.36181 0.6923 0 1.2847 0.0871 1.7773 0.26131 0.5058 0.1742 0.9185 0.40871 1.238 0.70352s0.5525 0.63652 0.6989 1.0251c0.1598 0.37522 0.2397 0.77053 0.2397 1.1859v4.8644c0 0.335 0.0066 0.6432 0.0199 0.9246s0.0333 0.5494 0.0599 0.8041h-1.5975c-0.0399-0.4825-0.0599-0.9649-0.0599-1.4473h-0.0399c-0.3994 0.6164-0.872 1.0519-1.4178 1.3066-0.5458 0.2546-1.1782 0.3819-1.897 0.3819-0.4393 0-0.8587-0.0603-1.2581-0.1809-0.3993-0.1206-0.7521-0.3016-1.0583-0.5428-0.2929-0.2412-0.5259-0.536-0.6989-0.8844-0.1731-0.3618-0.2596-0.7772-0.2596-1.2462 0-0.6164 0.1331-1.1324 0.3994-1.5478 0.2795-0.41541 0.6523-0.75042 1.1182-1.005 0.4793-0.26801 1.0317-0.45562 1.6574-0.56282 0.639-0.1206 1.318-0.18091 2.0368-0.18091h1.318v-0.40201c0-0.24121-0.0466-0.48241-0.1398-0.72362s-0.233-0.45562-0.4193-0.64322c-0.1864-0.20101-0.4194-0.35511-0.699-0.46232-0.2795-0.1206-0.6123-0.1809-0.9984-0.1809-0.3461 0-0.6523 0.0335-0.9186 0.1005-0.2529 0.067-0.4859 0.15411-0.6989 0.26131-0.213 0.0938-0.406 0.20771-0.5791 0.34171-0.173 0.134-0.3394 0.26131-0.4992 0.38191l-1.0783-1.1256zm5.0721 3.7789c-0.426 0-0.8653 0.0268-1.318 0.0804-0.4393 0.0402-0.8453 0.1273-1.2181 0.26131-0.3594 0.134-0.6589 0.32161-0.8986 0.56278-0.2263 0.2412-0.3394 0.5495-0.3394 0.9247 0 0.5494 0.1797 0.9447 0.5391 1.1859 0.3728 0.2412 0.872 0.3618 1.4977 0.3618 0.4926 0 0.9119-0.0804 1.258-0.2412 0.3461-0.1742 0.6257-0.3953 0.8387-0.6633s0.3661-0.5628 0.4593-0.8844c0.0932-0.3351 0.1398-0.6634 0.1398-0.98497v-0.60302h-0.9585z"/>
<path d="m53.182 2.4221v-1.0251h0.9885v-1.397h1.1981v1.397h1.318v1.0251h-1.318v2.1106c0 0.2412 0.0433 0.43216 0.1298 0.57286 0.0932 0.14071 0.2729 0.21106 0.5392 0.21106 0.1065 0 0.223-0.01005 0.3494-0.03015 0.1265-0.0268 0.2263-0.067 0.2996-0.1206v1.0151c-0.1265 0.0603-0.2829 0.1005-0.4693 0.1206-0.1797 0.0268-0.3395 0.0402-0.4793 0.0402-0.3195 0-0.5824-0.03685-0.7887-0.11055-0.1997-0.067-0.3595-0.17085-0.4793-0.31156-0.1131-0.1474-0.193-0.32831-0.2396-0.54272-0.0399-0.2144-0.0599-0.46231-0.0599-0.74372v-2.2111h-0.9885z" fill="#e56a61"/>
<path d="m57.572 1.397h1.1382v0.75378h0.02c0.1065-0.22781 0.2762-0.42881 0.5092-0.60302 0.2396-0.18091 0.5591-0.27136 0.9585-0.27136 0.7521 0 1.2514 0.29816 1.4976 0.89448 0.1731-0.30821 0.3894-0.53267 0.649-0.67337 0.2596-0.14741 0.5691-0.22111 0.9286-0.22111 0.3195 0 0.5891 0.0536 0.8087 0.16081 0.2197 0.1072 0.3961 0.2546 0.5292 0.44221 0.1398 0.18761 0.2396 0.40871 0.2995 0.66332 0.0599 0.24791 0.0899 0.51592 0.0899 0.80403v2.8744h-1.1981v-2.7337c0-0.1474-0.0134-0.28811-0.04-0.42211-0.0266-0.14071-0.0732-0.26131-0.1398-0.36181-0.0665-0.10721-0.1564-0.19096-0.2695-0.25126-0.1132-0.0603-0.2596-0.09045-0.4394-0.09045-0.1863 0-0.3461 0.03685-0.4792 0.11055-0.1265 0.067-0.233 0.1608-0.3195 0.28141-0.0799 0.1139-0.1398 0.24791-0.1797 0.40201-0.0333 0.14741-0.05 0.29816-0.05 0.45227v2.6131h-1.1981v-2.8744c0-0.30151-0.0632-0.53937-0.1897-0.71358-0.1264-0.1809-0.3361-0.27135-0.629-0.27135-0.1997 0-0.3694 0.0335-0.5092 0.1005-0.1331 0.067-0.2463 0.15745-0.3395 0.27136-0.0865 0.1139-0.1497 0.24456-0.1897 0.39196-0.0399 0.1474-0.0599 0.30151-0.0599 0.46232v2.6332h-1.1981v-4.8242z" fill="#e56a61"/>
</svg>
