<svg id="Layer_1" data-name="Layer 1" xmlns="http://www.w3.org/2000/svg" viewBox="0 0 1000 249.6"><defs><style>.cls-1{fill:#5e2137;}.cls-2{fill:none;stroke:#5e2137;stroke-miterlimit:10;stroke-width:16px;}</style></defs><title>logo_oneline_purple</title><path class="cls-1" d="M245.76,157.46H230.64V91.13h15.12v26.45h21.38V91.13h15.12v66.33H267.14V130.85H245.76Z"/><path class="cls-1" d="M363.77,157.46H347.53l-4.9-13.26H317.38l-4.9,13.26H296.24L323,91.13h14Zm-33.68-45.83h-.16l-7.4,19.3h15Z"/><path class="cls-1" d="M423.51,139.69l6.43,12.87s-7.4,6.11-21.79,6.11c-18.73,0-35.94-15.28-35.94-34.25s17.13-34.49,35.94-34.49c14.39,0,21.79,6.11,21.79,6.11l-6.43,12.86a23.05,23.05,0,0,0-13-4.1c-15.19,0-21.87,10.61-21.87,19.46s6.68,19.53,21.87,19.53A23.05,23.05,0,0,0,423.51,139.69Z"/><path class="cls-1" d="M486.69,157.46l-24.44-28.14v28.14H447.14V91.13h15.11v27.1L485,91.13h18.33l-26.69,31.44,30.88,34.89Z"/><path class="cls-1" d="M594.74,157.46,570.3,129.32v28.14H555.18V91.13H570.3v27.1l22.75-27.1h18.33l-26.69,31.44,30.87,34.89Z"/><path class="cls-1" d="M660.34,89.93c18.41,0,33.36,14.95,33.36,34.33s-14.31,34.41-33.36,34.41c-19.62,0-33.45-15-33.45-34.41S642.09,89.93,660.34,89.93Zm0,54.1c12.06,0,17-9.88,17-19.77s-5.3-19.78-17-19.78-17.13,9.89-17.13,19.78S648,144,660.34,144Z"/><path class="cls-1" d="M756.81,96.2l-6.11,12.06s-6.59-4.59-13.43-4.59c-5.14,0-7.88,2.34-7.88,6s6.28,6.36,13.83,9.57c7.4,3.14,15.52,9.41,15.52,18.09,0,15.84-12.06,21.39-25,21.39a38.76,38.76,0,0,1-24.93-8.77l7.56-12.7s8.84,7.48,16.24,7.48c3.3,0,9.57-.32,9.57-6.51,0-4.83-7.08-7-15-10.94s-12.62-10.13-12.62-17c0-12.38,10.94-20.26,21.63-20.26A37.7,37.7,0,0,1,756.81,96.2Z"/><path class="cls-1" d="M792.34,157.46H777.23V91.13h15.11Z"/><path class="cls-1" d="M859.15,139.69l6.43,12.87s-7.39,6.11-21.79,6.11c-18.73,0-35.93-15.28-35.93-34.25S825,89.93,843.79,89.93c14.4,0,21.79,6.11,21.79,6.11l-6.43,12.86a23,23,0,0,0-13-4.1c-15.2,0-21.87,10.61-21.87,19.46s6.67,19.53,21.87,19.53A23,23,0,0,0,859.15,139.69Z"/><path class="cls-1" d="M920.73,104.4H897.9v13.18h21.87v13.27H897.9V144.2h22.83v13.26h-38V91.13h38Z"/><rect class="cls-2" x="61" y="63.6" width="122" height="122"><animateTransform
            attributeName="transform"
            begin="0s"
            dur="1s"
            type="rotate"
            from="0 122 122"
            to="360 122 122"
            repeatCount="indefinite"
        /></rect><path class="cls-1" d="M90.94,105.35h8.17v18.51h.1a9.81,9.81,0,0,1,6.78-3.18c4.34,0,10.39,2.17,10.39,8.77v15.6h-8.17V131.66a4.38,4.38,0,0,0-4.25-4.61,5,5,0,0,0-4.85,4.61v13.39H90.94Z"/><path class="cls-1" d="M144.26,132.68l12.37,12.37H146.1l-9.46-9.46v9.46h-8.17v-39.7h8.17v24.28l8.26-8.26h10.62Z"/></svg>